<svg width="20" height="20" viewBox="0 0 20 20" fill="none" xmlns="http://www.w3.org/2000/svg">
<g clip-path="url(#clip0_1439_452)">
<path d="M0 19.9999C0.115376 19.5795 0.224271 19.1822 0.333498 18.7849C0.6745 17.5448 1.01308 16.3039 1.36025 15.0655C1.37936 15.0039 1.38495 14.939 1.37664 14.8752C1.36832 14.8113 1.3463 14.75 1.31206 14.6953C0.359085 13.0022 -0.058738 11.0627 0.113096 9.12986C0.266763 7.09916 1.05188 5.16634 2.35958 3.59942C3.66727 2.0325 5.43274 0.909129 7.41116 0.385096C8.9811 -0.0776902 10.644 -0.132904 12.2415 0.224715C13.839 0.582334 15.3178 1.34087 16.537 2.42806C18.2784 3.86358 19.444 5.87298 19.8221 8.09094C20.1152 9.54506 20.0677 11.0468 19.6833 12.4797C19.2988 13.9126 18.5878 15.2382 17.6053 16.3538C16.1526 18.0939 14.1278 19.2668 11.8893 19.6647C9.71608 20.0879 7.46281 19.7632 5.49976 18.7439C5.42839 18.7049 5.3499 18.6805 5.26891 18.6721C5.18792 18.6637 5.10605 18.6714 5.02812 18.6949C3.42343 19.1208 1.81763 19.5426 0.210717 19.9603C0.152661 19.9755 0.0925142 19.9828 0 19.9999ZM2.4018 17.64C2.49864 17.6168 2.57087 17.6007 2.64241 17.5821C3.52332 17.353 4.40549 17.1285 5.28383 16.8901C5.36211 16.8665 5.44467 16.8606 5.52553 16.8728C5.60639 16.885 5.68351 16.9149 5.75131 16.9603C7.59084 18.083 9.80268 18.435 11.9025 17.9391C13.4025 17.5934 14.7756 16.8379 15.867 15.7578C16.9585 14.6776 17.725 13.3157 18.0801 11.8255C18.4352 10.3353 18.3648 8.7761 17.8769 7.32357C17.389 5.87104 16.5029 4.58293 15.3185 3.60439C14.1341 2.62586 12.6985 1.9958 11.1734 1.78522C9.64834 1.57464 8.09446 1.79191 6.68688 2.41254C5.27929 3.03318 4.07395 4.03251 3.20669 5.29791C2.33943 6.56332 1.84472 8.0445 1.77831 9.57454C1.70472 11.1065 2.07018 12.6277 2.83214 13.9611C2.99685 14.1717 3.12168 14.4104 3.2005 14.6654C3.18227 14.9338 3.11659 15.1968 3.00646 15.4425C2.80692 16.1669 2.60775 16.8914 2.4018 17.64Z" fill="#2EB12B"/>
<path d="M4.95947 7.70446C4.96258 7.31027 5.04742 6.92095 5.20868 6.56085C5.36994 6.20075 5.60415 5.87761 5.89667 5.61164C5.98296 5.5254 6.08604 5.45758 6.19959 5.41232C6.31315 5.36707 6.43479 5.34533 6.55708 5.34844C6.70315 5.35857 6.84964 5.36132 6.996 5.35667C7.10819 5.34314 7.22157 5.36958 7.31603 5.43129C7.4105 5.493 7.47993 5.586 7.51203 5.69378C7.79671 6.36263 8.08531 7.03014 8.34915 7.70712C8.36867 7.7749 8.37422 7.8459 8.36547 7.91586C8.35671 7.98582 8.33383 8.0533 8.2982 8.11424C8.10932 8.40526 7.90264 8.68446 7.67934 8.95027C7.61337 9.01681 7.5736 9.10469 7.56725 9.19792C7.5609 9.29116 7.5884 9.38356 7.64474 9.45835C8.41584 10.7851 9.61816 11.8112 11.0538 12.3677C11.1395 12.4179 11.2417 12.4324 11.338 12.4078C11.4344 12.3833 11.5171 12.3217 11.5679 12.2367C11.816 11.937 12.0609 11.6347 12.3027 11.3299C12.4734 11.1148 12.5743 11.0604 12.8225 11.1733C13.5306 11.4957 14.2322 11.8333 14.9288 12.1798C14.9722 12.2099 15.0083 12.2491 15.0347 12.2947C15.0611 12.3404 15.0771 12.3912 15.0814 12.4436C15.12 12.7934 15.0583 13.1469 14.9034 13.4633C14.7486 13.7797 14.5069 14.046 14.2063 14.2315C13.8252 14.4697 13.3955 14.6204 12.9485 14.6726C12.5015 14.7247 12.0484 14.6771 11.6222 14.5332C9.3715 13.8592 7.42809 12.4247 6.12751 10.4772C5.63935 9.86976 5.28006 9.17015 5.07132 8.42069C5.01718 8.18579 4.99585 7.9434 4.95947 7.70446Z" fill="#2EB12B"/>
</g>
<defs>
<clipPath id="clip0_1439_452">
<rect width="20" height="20" fill="white"/>
</clipPath>
</defs>
</svg>
