<svg width="77" height="87" viewBox="0 0 77 87" fill="none" xmlns="http://www.w3.org/2000/svg">
<g clip-path="url(#clip0_1433_248)">
<path d="M38.6552 0V16.0919H62.8258C62.6573 18.0585 62.5065 19.9723 62.338 21.8773C62.0186 25.4591 61.6934 29.041 61.3623 32.6228C61.043 36.1169 60.7148 39.6197 60.4043 43.1138C60.085 46.5552 59.7923 49.9965 59.473 53.4379C59.1448 57.1338 58.8077 60.821 58.4352 64.517C58.4045 64.6513 58.3418 64.7763 58.2523 64.8817C58.1628 64.9871 58.0491 65.0698 57.9207 65.1227C51.5432 66.8961 45.1628 68.6431 38.7794 70.3638C38.7389 70.3746 38.6972 70.3805 38.6552 70.3814V86.9913C38.8535 86.9893 39.0506 86.9597 39.2406 86.9035C49.2459 84.1558 59.2424 81.3728 69.2565 78.6249C69.4908 78.5965 69.7059 78.4827 69.8601 78.3058C70.0142 78.1289 70.0963 77.9015 70.0903 77.668C70.4894 72.8659 70.9034 68.0696 71.3321 63.2792C71.8199 57.8625 72.3344 52.4547 72.8222 47.038C73.2569 42.2447 73.656 37.4513 74.0818 32.658C74.5075 27.891 74.9599 23.1239 75.3945 18.3657C75.7671 14.222 76.1219 10.0695 76.4855 5.92584C76.6541 3.95056 76.8315 1.97528 77 0L38.6552 0ZM51.7473 33.6149C51.9335 30.788 52.1819 27.97 52.4036 25.0729H38.6552V34.9669C42.5846 34.923 46.514 34.8791 50.4434 34.8352C51.9069 34.8176 51.6586 34.8791 51.7473 33.6149ZM48.6783 57.7923C49.1395 57.6694 49.4145 57.485 49.4677 56.9671C49.9112 52.797 50.3665 48.6329 50.8336 44.4745C50.8224 44.4028 50.8046 44.3323 50.7804 44.2638H38.6552V60.3997C38.7992 60.3906 38.9418 60.367 39.081 60.3294C42.2919 59.5042 45.4762 58.6351 48.6782 57.7923H48.6783Z" fill="#2F8BCB"/>
<path d="M38.6552 16.092H14.1564C14.3693 19.1032 14.5733 22.0529 14.7773 25.0729H38.6552V34.9669C31.302 35.0459 23.9459 35.1278 16.5868 35.2127C16.3384 35.2127 16.0901 35.239 15.753 35.2566C16.0724 38.2853 16.3917 41.2526 16.711 44.2638H38.6552V60.3997C38.3778 60.4179 38.0991 60.3912 37.8303 60.3207C34.6815 59.5042 31.5504 58.6439 28.4016 57.8274C28.1519 57.796 27.9232 57.6731 27.7606 57.4829C27.598 57.2928 27.5134 57.0492 27.5234 56.8003C27.3727 54.6582 27.1509 52.5161 27.0001 50.3653C26.9558 49.7946 26.7695 49.5927 26.1752 49.5927C23.3989 49.619 20.6138 49.6015 17.8375 49.6103C17.6423 49.6103 17.4561 49.6366 17.2343 49.6542C17.2117 49.7758 17.1998 49.8992 17.1988 50.0229C17.6423 54.8426 18.1036 59.6622 18.5293 64.4907C18.5737 64.9911 18.8398 65.0701 19.2123 65.1755C25.4656 66.8786 31.713 68.5817 37.9545 70.2849C38.1787 70.3653 38.4174 70.3982 38.6552 70.3814V86.9913C38.3508 87.0162 38.0443 86.9865 37.7505 86.9036C27.7718 84.1645 17.802 81.3815 7.82329 78.6513C7.54694 78.613 7.29577 78.4717 7.12104 78.2564C6.94632 78.041 6.86121 77.7678 6.88308 77.4924C6.77664 75.8244 6.61698 74.1652 6.47506 72.4972C6.1557 68.9241 5.83342 65.3452 5.50824 61.7604C5.19779 58.2927 4.88734 54.8221 4.57689 51.3485C4.25757 47.8018 3.93826 44.2492 3.61894 40.6908C3.30849 37.2231 3.001 33.7553 2.69646 30.2876C2.37715 26.6795 2.05191 23.0713 1.72077 19.4631C1.40145 15.9339 1.07326 12.4135 0.762815 8.88437C0.505587 5.92584 0.257228 2.96731 0 0H38.6552V16.092Z" fill="#1D70B7"/>
</g>
<defs>
<clipPath id="clip0_1433_248">
<rect width="77" height="87" fill="white"/>
</clipPath>
</defs>
</svg>
