<svg width="37" height="82" viewBox="0 0 37 82" fill="none" xmlns="http://www.w3.org/2000/svg">
<g clip-path="url(#clip0_1435_282)">
<path d="M2.90277 48.5196C3.37043 48.7545 3.89164 48.8629 4.4144 48.834C4.93716 48.8052 5.44319 48.64 5.88204 48.3551C6.5659 47.8833 7.21928 47.369 7.83829 46.8152C7.98931 46.6645 8.125 46.4992 8.24336 46.3218L8.36874 46.3985C8.35371 46.515 8.3325 46.6308 8.3052 46.7451C8.03008 47.69 7.72874 48.6281 7.48455 49.5808C7.3986 49.9363 7.38325 50.3052 7.43938 50.6666C7.44665 50.7696 7.48485 50.8679 7.54899 50.9489C7.61313 51.0299 7.70024 51.0897 7.79895 51.1205C7.89766 51.1513 8.00339 51.1517 8.10234 51.1217C8.2013 51.0917 8.28889 51.0326 8.35368 50.9521C8.59096 50.7192 8.77346 50.4365 8.88799 50.1246C9.24182 49.0814 9.54934 48.0224 9.86941 46.9678C10.3929 45.2431 10.9294 43.5221 11.4233 41.7889C11.5589 41.2496 11.6448 40.699 11.68 40.144C11.7136 39.9836 11.6862 39.8163 11.603 39.675C11.5198 39.5336 11.3868 39.4282 11.2299 39.3794C11.0727 39.3288 10.9019 39.3411 10.7536 39.4137C10.6053 39.4864 10.4911 39.6136 10.435 39.7687C10.1313 40.3971 9.87416 41.0469 9.66562 41.7128C8.99832 43.7718 7.55742 45.4927 5.64548 46.5142C4.57864 47.1707 3.88 46.7421 3.73666 45.4965C3.66249 44.4157 3.83803 43.3323 4.24976 42.3298C4.98017 40.1633 6.07612 38.1371 7.49031 36.3388C8.02343 35.6427 8.76943 35.139 9.61524 34.904C9.89234 34.7976 10.1987 34.7952 10.4775 34.8972C10.7563 34.9992 10.9884 35.1987 11.1308 35.4587C11.3594 35.791 11.5321 36.1618 11.7644 36.4911C11.8876 36.6779 12.057 36.8299 12.2563 36.9323C12.381 36.9811 12.516 36.9981 12.649 36.9819C12.782 36.9657 12.9089 36.9167 13.0182 36.8393C13.1275 36.762 13.2158 36.6587 13.2751 36.5388C13.3345 36.4189 13.363 36.2862 13.3581 36.1526C13.3036 34.6197 11.0805 32.8204 9.55878 33.0514C8.435 33.2402 7.40083 33.7816 6.60656 34.597C5.36732 35.8551 4.36856 37.3283 3.65935 38.9442C3.15567 40.0039 2.72461 41.098 2.22937 42.2504C1.53326 35.5559 0.842403 28.9121 0.156815 22.3191C1.06199 22.6175 1.9816 22.8704 2.91216 23.0769C4.56998 23.3912 6.24285 23.6205 7.92419 23.7638C10.69 23.9591 13.4642 24.0916 16.2364 24.1243C19.2237 24.1596 22.2141 24.0911 25.2003 23.9881C27.0412 23.9247 28.8812 23.7522 30.7137 23.5551C32.5285 23.4062 34.3167 23.0262 36.0348 22.4243C36.22 22.3544 36.3998 22.2698 36.6304 22.1715C36.5664 22.7722 36.5095 23.3245 36.4483 23.8763C36.29 25.3035 36.1306 26.7306 35.9701 28.1575C35.7897 29.7612 35.6085 31.3648 35.4265 32.9683C35.2732 34.3364 35.1242 35.7051 34.9714 37.0732C34.8133 38.4883 34.6541 39.9032 34.4938 41.3181C34.3885 42.2614 34.2902 43.2056 34.1798 44.1483C34.1707 44.275 34.1256 44.3965 34.0498 44.4986C32.9885 45.7502 31.5647 46.6431 29.9742 47.0545C29.8632 47.0656 29.7515 47.0664 29.6404 47.0569C29.7346 46.908 29.8371 46.7644 29.9474 46.6269C30.7166 45.7834 31.5107 44.9616 32.2561 44.0979C32.6796 43.6249 32.9656 43.0454 33.0832 42.4221C33.1574 42.1711 33.1604 41.9046 33.092 41.6521C33.0236 41.3995 32.8864 41.1708 32.6957 40.9913C32.5049 40.8118 32.2681 40.6885 32.0115 40.635C31.7548 40.5816 31.4883 40.6002 31.2416 40.6886C30.1694 40.9921 29.1876 41.552 28.3814 42.3197C28.4107 42.1238 28.445 41.9612 28.4576 41.797C28.488 41.6305 28.4528 41.4588 28.3591 41.3177C28.2655 41.1767 28.1208 41.0772 27.9554 41.0402C27.883 41.0184 27.8071 41.0115 27.732 41.0198C27.6569 41.0281 27.5843 41.0515 27.5185 41.0885C27.4527 41.1256 27.3951 41.1755 27.3492 41.2354C27.3033 41.2952 27.27 41.3637 27.2513 41.4368C27.0355 41.9753 26.8481 42.526 26.6666 43.0774C26.3837 44.023 25.8487 44.8743 25.1189 45.5403C24.389 46.2064 23.4917 46.6622 22.5225 46.8591C22.2237 46.933 22.0827 46.8055 22.1462 46.4557C22.2121 45.9981 22.3235 45.5482 22.4785 45.1126C23.4335 42.7211 24.4119 40.3387 25.3893 37.9561C25.7842 37.1568 26.0411 36.2967 26.1492 35.412C26.1505 35.3884 26.159 35.3652 26.1602 35.3416C26.1837 34.8667 26.0242 34.4892 25.7253 34.4079C25.2928 34.2902 25.0718 34.6228 24.9194 34.9129C24.4761 35.725 24.0756 36.5597 23.7194 37.4134C22.8367 39.6289 21.9933 41.8602 21.1529 44.0922C20.974 44.5674 20.8745 45.0724 20.7391 45.5638C20.5951 45.9721 20.3343 46.3293 19.9891 46.5914C19.6439 46.8534 19.2292 47.0089 18.7965 47.0384C18.7243 47.0478 18.6509 47.04 18.5823 47.0156C18.5137 46.9913 18.4519 46.9511 18.4018 46.8984C18.3517 46.8456 18.3149 46.7818 18.2942 46.7122C18.2736 46.6425 18.2698 46.569 18.283 46.4975C18.3055 45.979 18.3929 45.4652 18.5434 44.9683C18.8495 44.0584 19.2451 43.1789 19.5855 42.2799C19.7112 41.9603 19.8013 41.6279 19.8541 41.2886C19.8641 41.2003 19.8534 41.111 19.8227 41.0276C19.7921 40.9442 19.7423 40.8691 19.6774 40.8083C19.5926 40.7812 19.5025 40.7745 19.4146 40.7888C19.3268 40.8031 19.2435 40.8381 19.1718 40.8908C18.9375 41.0732 18.7409 41.2992 18.5927 41.5563C18.1692 42.3388 17.7836 43.1417 17.3853 43.9377C16.7616 45.1199 15.8681 46.1392 14.777 46.9134C14.7418 46.946 14.6995 46.9698 14.6534 46.9829C14.4188 47.0163 14.0913 47.1473 13.971 47.0432C13.8917 46.9475 13.8347 46.8355 13.8041 46.7152C13.7735 46.5949 13.77 46.4693 13.7938 46.3475C13.9192 45.7686 14.0902 45.2005 14.3054 44.6485C14.558 43.9963 14.8785 43.3706 15.1579 42.7284C15.3136 42.3702 15.4599 42.0064 15.5813 41.6356C15.6285 41.476 15.6364 41.3074 15.6044 41.1441C15.6021 41.0564 15.5729 40.9715 15.5206 40.9008C15.4684 40.8302 15.3957 40.7773 15.3124 40.7492C15.229 40.7211 15.1391 40.7193 15.0546 40.7438C14.9702 40.7684 14.8954 40.8183 14.8402 40.8867C14.5166 41.2179 14.2298 41.5831 13.9848 41.9759C13.1263 43.3357 12.5421 44.8496 12.2647 46.4327C12.2008 46.8321 12.1948 47.2387 12.2469 47.6398C12.3854 48.6651 13.257 48.9274 14.1619 48.8019C14.9321 48.6592 15.6255 48.2458 16.1164 47.6366C16.3469 47.3839 16.5474 47.1037 16.792 46.7978C16.8214 46.9144 16.8435 47.0327 16.8582 47.152C16.8482 47.3843 16.8968 47.6155 16.9996 47.8242C17.1024 48.0329 17.2561 48.2125 17.4465 48.3466C17.637 48.4807 17.8582 48.5648 18.0897 48.5914C18.3212 48.618 18.5558 48.5862 18.7718 48.4988C19.3368 48.3281 19.8879 48.1146 20.4203 47.8602C20.6677 48.1101 20.9423 48.3317 21.239 48.5209C21.4444 48.6066 21.6671 48.6433 21.8893 48.6281C22.1114 48.6128 22.327 48.5461 22.5188 48.4332C23.1907 48.1085 23.8332 47.7225 24.4844 47.3558C24.6302 47.2532 24.7894 47.1711 24.9576 47.1117C24.8716 47.3452 24.7957 47.583 24.698 47.8114C24.1049 49.1974 23.4975 50.5773 22.917 51.9685C22.7894 52.3131 22.6938 52.6686 22.6312 53.0306C22.6031 53.1817 22.609 53.3372 22.6485 53.4859C22.7567 53.9119 23.1395 54.0649 23.4607 53.766C23.7919 53.4774 24.0681 53.1314 24.2759 52.7447C24.8812 51.4964 25.441 50.2254 25.9937 48.9526C26.5901 47.4123 27.3254 45.9291 28.1905 44.5214C28.6185 43.8305 29.1991 43.2464 29.888 42.8138C30.4282 42.4773 31.0601 42.3171 31.6958 42.3555C31.597 42.5545 31.4801 42.7439 31.3464 42.9213C30.8417 43.4595 30.2951 43.9602 29.8103 44.515C29.3113 45.0722 28.8526 45.664 28.4377 46.286C28.2383 46.6212 28.1271 47.0013 28.1143 47.391C28.0889 47.5792 28.1095 47.7708 28.1745 47.9493C28.2394 48.1279 28.3468 48.2881 28.4873 48.4162C28.6279 48.5443 28.7975 48.6365 28.9815 48.685C29.1656 48.7334 29.3587 48.7367 29.5443 48.6944C30.1563 48.6224 30.7539 48.4581 31.3165 48.2072C32.2005 47.7825 33.0268 47.2383 33.8845 46.7404C33.867 46.9472 33.8508 47.2194 33.8202 47.4899C33.5904 49.5174 33.3539 51.5441 33.1273 53.5719C32.9244 55.388 32.732 57.2053 32.5339 59.0219C32.4645 59.6589 32.4077 60.2981 32.3079 60.9304C32.2572 61.0925 32.1454 61.2287 31.9961 61.3103C30.8709 61.9318 29.6663 62.3979 28.4154 62.6958C26.4985 63.2189 24.5305 63.5336 22.5458 63.6347C20.2387 63.7325 17.9253 63.8188 15.6188 63.7576C12.7359 63.7252 9.87338 63.2706 7.12288 62.4082C6.2132 62.1086 5.35258 61.6604 4.47119 61.2765C4.37875 61.2386 4.29981 61.174 4.24455 61.0909C4.18929 61.0078 4.16023 60.9102 4.16114 60.8105C3.95971 58.7553 3.74283 56.7017 3.52571 54.6481C3.32108 52.7126 3.11025 50.7778 2.90394 48.8426C2.8945 48.7539 2.90277 48.6633 2.90277 48.5196Z" fill="#FF2400"/>
<path d="M5.20291 62.9186C13.7577 65.4425 22.8637 65.4272 31.4099 62.8748C31.2279 63.1899 31.0426 63.5142 30.8539 63.8365C30.4756 64.483 30.1184 65.1435 29.7081 65.7691C29.4306 66.1969 29.2769 66.6929 29.264 67.2023C29.1949 68.6144 29.1133 70.026 29.0284 71.4373C28.9236 73.1803 28.8098 74.9228 28.7011 76.6657C28.6463 77.5431 28.5612 78.4204 28.5528 79.2983C28.5697 79.5312 28.514 79.7636 28.3934 79.9637C28.2728 80.1639 28.0932 80.3219 27.8792 80.4163C27.175 80.7564 26.4431 81.0364 25.6915 81.2531C23.6425 81.7473 21.5415 81.995 19.4335 81.9907C17.623 82.0435 15.8111 81.9669 14.0115 81.7615C12.602 81.6266 11.2152 81.3149 9.88384 80.8339C9.58653 80.713 9.29909 80.5693 9.02414 80.4039C8.82721 80.294 8.66369 80.1331 8.55086 79.9382C8.43803 79.7432 8.38008 79.5215 8.38314 79.2964C8.27662 77.3516 8.11703 75.4098 7.98374 73.4664C7.87889 71.9378 7.78482 70.4084 7.68337 68.8795C7.64012 68.2277 7.59789 67.5756 7.53711 66.9253C7.51065 66.7865 7.45482 66.6549 7.37335 66.5393C6.69556 65.407 6.01503 64.2763 5.33178 63.1472C5.28364 63.0673 5.24002 62.9847 5.20291 62.9186Z" fill="#FF2400"/>
<path d="M26.0734 18.2998C26.5197 18.3388 26.943 18.3692 27.3648 18.4138C28.9608 18.5825 30.5651 18.6995 32.1493 18.9453C33.4006 19.1395 34.6302 19.4809 35.8618 19.7874C36.1584 19.8763 36.4373 20.0157 36.6863 20.1994C37.0998 20.48 37.1101 20.848 36.6842 21.1113C36.3081 21.3609 35.8937 21.5477 35.4574 21.6643C34.0456 21.9838 32.6312 22.33 31.1981 22.5074C29.0507 22.7731 26.8884 22.9295 24.729 23.0831C23.4706 23.1725 22.2055 23.1727 20.9431 23.2003C19.8951 23.2231 18.8456 23.2626 17.7985 23.2326C15.2038 23.1583 12.6071 23.0985 10.017 22.9388C7.50878 22.8258 5.01533 22.494 2.56511 21.9473C1.85026 21.7742 1.15475 21.5296 0.489163 21.2171C-0.168054 20.9088 -0.153016 20.453 0.474107 20.0917C1.32409 19.6318 2.25429 19.3382 3.21469 19.2267C5.31927 18.9223 7.42756 18.6116 9.54544 18.4388C11.8577 18.2502 14.1817 18.1765 16.5022 18.1238C18.5018 18.0783 20.5037 18.1269 22.5044 18.1497C22.7829 18.1529 22.8907 18.0765 22.9573 17.8002C23.5303 15.4257 24.116 13.0542 24.7142 10.6859C24.7717 10.4594 24.8839 10.2503 25.0409 10.077C28.1356 6.79516 31.234 3.51687 34.3363 0.24216C34.4303 0.126856 34.5604 0.0464891 34.7057 0.0140223C34.8511 -0.0184445 35.0031 -0.00111872 35.1374 0.0632052C35.8332 0.331415 36.4156 0.829867 36.7872 1.4752C36.8812 1.60578 36.9221 1.76714 36.9014 1.92662C36.8807 2.08611 36.8001 2.23179 36.6758 2.3342C33.7376 5.40347 30.8075 8.48052 27.8856 11.5654C27.7866 11.6645 27.7131 11.7862 27.6716 11.9199C27.1434 13.9632 26.621 16.0079 26.1045 18.0541C26.0897 18.1354 26.0793 18.2174 26.0734 18.2998ZM25.3147 21.4718C24.214 21.6493 23.0913 21.6418 21.9931 21.4495L21.7387 20.9209C21.6001 21.1471 21.4507 21.2833 21.4517 21.4184C21.4782 21.5845 21.5583 21.7376 21.6799 21.8541C21.7707 21.9318 21.8847 21.9773 22.0041 21.9836C23.147 22.1394 24.3072 22.1187 25.4438 21.9223C25.5865 21.895 25.7849 21.8212 25.8319 21.714C25.889 21.5474 25.883 21.3657 25.8151 21.2031C25.7825 21.1227 25.5766 21.0668 25.4619 21.0844C25.4053 21.093 25.3782 21.2934 25.3147 21.4718Z" fill="#FF2400"/>
</g>
<defs>
<clipPath id="clip0_1435_282">
<rect width="37" height="82" fill="white"/>
</clipPath>
</defs>
</svg>
