<svg width="78" height="88" viewBox="0 0 78 88" fill="none" xmlns="http://www.w3.org/2000/svg">
<g clip-path="url(#clip0_1434_264)">
<path d="M38.7961 46.4376V63.0784C39.0039 63.0784 39.2103 63.0457 39.4077 62.9816C42.7936 61.8904 46.1707 60.7552 49.5655 59.6816C50.239 59.4704 50.248 59.0128 50.2834 58.5112C50.5316 54.8592 50.7768 51.2043 51.0191 47.5464C51.0457 47.212 51.0811 46.8688 51.1166 46.4376H38.7961ZM38.7961 -1.70352e-05V12.8568H63.8005C63.5611 16.236 63.3218 19.5976 63.0736 23.0296H38.7961V36.1416H62.143C62.0189 37.972 61.9125 39.7232 61.7884 41.4656C61.5314 45.0648 61.2566 48.6552 60.9907 52.2544C60.645 56.9888 60.2905 61.7144 59.9802 66.4488C59.9448 67.0208 59.5814 67.056 59.2268 67.1792C52.8627 69.2912 46.4986 71.3768 40.1523 73.524C39.7162 73.6746 39.2578 73.7519 38.7961 73.7528V87.2079C39.0216 87.2122 39.2462 87.1795 39.4609 87.1111C50.1416 83.644 60.8164 80.168 71.4852 76.6831C71.7305 76.636 71.9502 76.5021 72.1035 76.3062C72.2567 76.1104 72.3331 75.8659 72.3184 75.6183C72.673 70.2063 73.0807 64.7943 73.4618 59.3911C73.772 54.9999 74.0645 50.6087 74.3748 46.2175C74.7471 41.0343 75.146 35.8599 75.5182 30.6767C75.8284 26.2855 76.1209 21.8943 76.4311 17.5031C76.7503 13.1119 77.087 8.72953 77.3973 4.33834C77.5036 2.89514 77.5568 1.45194 77.6366 -6.10352e-05L38.7961 -1.70352e-05ZM49.5655 59.6816C50.239 59.4704 50.248 59.0128 50.2834 58.5112C50.5316 54.8592 50.7768 51.2043 51.0191 47.5464C51.0457 47.212 51.0811 46.8688 51.1166 46.4376H38.7961V63.0784C39.0039 63.0784 39.2103 63.0457 39.4077 62.9816C42.7936 61.8904 46.1707 60.7552 49.5655 59.6816Z" fill="#EE7A38"/>
<path d="M38.7961 12.8568H13.8716C14.6605 24.0592 15.4493 35.2088 16.247 46.4376H38.7961V63.0784C38.6398 63.0778 38.4845 63.0541 38.3352 63.008C34.8873 61.8992 31.4482 60.7728 28.018 59.6024C27.8856 59.5317 27.7698 59.4339 27.6782 59.3156C27.5865 59.1973 27.5211 59.0611 27.4862 58.916C27.3532 58.168 27.3178 57.4112 27.2469 56.6544H17.0448C17.0448 56.9096 17.0359 57.1296 17.0536 57.3496C17.2575 60.2976 17.4968 63.2456 17.6652 66.1936C17.6475 66.4246 17.7164 66.6539 17.8588 66.8375C18.0011 67.0211 18.2068 67.1459 18.4363 67.188C24.8004 69.2824 31.1645 71.3768 37.5109 73.5152C37.9246 73.6589 38.358 73.739 38.7961 73.7528V87.208C38.607 87.2016 38.4195 87.172 38.2377 87.12C27.557 83.6528 16.8823 80.1768 6.21341 76.692C5.9672 76.642 5.74706 76.5064 5.59267 76.3096C5.43828 76.1127 5.35979 75.8676 5.37136 75.6184C5.265 73.656 5.12318 71.7024 4.99023 69.7488C4.74208 66.2904 4.4939 62.8349 4.24568 59.3824C3.92659 54.8504 3.60159 50.3213 3.27068 45.7952C3.0225 42.3368 2.77729 38.8813 2.53504 35.4288C2.20706 30.8968 1.87909 26.3648 1.55114 21.8328C1.30295 18.3568 1.05477 14.875 0.806591 11.3872C0.540717 7.5944 0.271854 3.79866 0 0H38.7961V12.8568Z" fill="#E84E1B"/>
<path d="M38.7961 23.0296V36.1416H25.8286C25.5184 31.7504 25.217 27.4296 24.898 23.0296H38.7961Z" fill="#E84E1B"/>
</g>
<defs>
<clipPath id="clip0_1434_264">
<rect width="78" height="88" fill="white"/>
</clipPath>
</defs>
</svg>
