<svg width="67" height="65" viewBox="0 0 67 65" fill="none" xmlns="http://www.w3.org/2000/svg">
<g clip-path="url(#clip0_1435_325)">
<path d="M7.90745 9.12012C7.36013 11.1557 6.74935 12.9398 6.41077 14.7741C5.19331 21.2913 6.11778 28.0275 9.04597 33.9758C14.3669 45.0988 23.0809 52.3251 35.0205 55.2887C42.9917 57.2673 50.8905 56.6559 58.2972 52.6847C60.8208 51.2682 63.1327 49.5038 65.165 47.4434C64.6661 48.3198 64.2031 49.219 63.6629 50.0691C58.6569 57.9469 51.5456 62.7698 42.3152 64.0547C28.1052 66.0329 16.6974 60.8279 7.79198 49.8176C3.62294 44.7211 1.00275 38.5359 0.242051 31.9955C-0.61612 24.8117 0.7384 18.111 5.41969 12.3333C6.2296 11.3337 6.99648 10.2993 7.90745 9.12012Z" fill="#2F8BCB"/>
<path d="M67 29.8455C65.7698 32.7878 63.888 35.4126 61.4964 37.5223C58.1175 40.4951 53.8893 42.33 49.41 42.7672C42.8677 43.5446 36.8348 42.3059 31.4099 38.4742C25.2639 34.1331 21.1925 28.4003 19.9262 20.8996C19.429 18.3027 19.4664 15.6318 20.036 13.0499C20.6056 10.468 21.6955 8.02927 23.2392 5.88269C23.8898 4.96448 24.5178 4.03022 25.0418 3.26941C24.6663 4.99266 24.1594 6.87168 23.8607 8.78322C23.2697 12.8396 23.9293 16.9797 25.7517 20.6516C30.1538 29.975 37.4877 35.6432 47.7179 37.0561C55.0115 38.0634 61.4723 36.0137 66.4746 30.2926C66.5574 30.1979 66.6672 30.1268 67 29.8455Z" fill="#2F8BCB"/>
<path d="M39.2539 0C36.5444 9.38511 44.5273 19.2514 53.7137 20.3902C56.893 20.7843 59.9387 20.7663 62.7608 19.0468C63.3942 18.6608 63.9678 18.1766 64.7325 17.6181C62.6573 21.0586 59.8477 23.1875 56.0812 23.8917C46.5619 25.6715 38.563 18.8633 36.777 11.4129C36.2329 9.45233 36.1741 7.38883 36.6056 5.40048C37.0372 3.41212 37.9461 1.55864 39.2539 0V0Z" fill="#2F8BCB"/>
</g>
<defs>
<clipPath id="clip0_1435_325">
<rect width="67" height="64.4669" fill="white"/>
</clipPath>
</defs>
</svg>
