<svg width="87" height="87" viewBox="0 0 87 87" fill="none" xmlns="http://www.w3.org/2000/svg">
<g clip-path="url(#clip0_1433_245)">
<path d="M43.2764 0V86.99C44.3879 86.977 45.4932 86.8206 46.5648 86.5246C55.8164 84.698 65.0622 82.851 74.3021 80.9834C75.9332 80.6585 77.5643 80.2985 79.2041 79.9999C79.2935 79.9987 79.3817 79.9793 79.4633 79.9428C79.545 79.9064 79.6184 79.8538 79.6791 79.7881C79.7398 79.7223 79.7865 79.645 79.8164 79.5606C79.8463 79.4763 79.8588 79.3867 79.853 79.2974C80.3002 74.0724 80.7591 68.8532 81.2298 63.6399C81.7121 58.3622 82.2207 53.0932 82.7031 47.8155C83.0714 43.7585 83.4046 39.6926 83.7729 35.6267C84.2026 30.9725 84.6498 26.3183 85.0708 21.6641C85.4391 17.607 85.7898 13.5411 86.1494 9.48407C86.43 6.32272 86.7194 3.16136 87 0L43.2764 0ZM70.4436 21.7783H54.4397V39.9648H68.7862C67.9444 49.2557 67.1113 58.4588 66.2694 67.7321C59.9205 69.0054 53.5978 70.27 47.205 71.5433V64.2019C49.257 63.7892 51.3266 63.3677 53.3874 62.9549C55.2465 62.5861 57.0968 62.1909 58.9558 61.8572C59.4732 61.7606 59.6048 61.5323 59.6486 61.0229C60.0082 56.9044 60.4028 52.7858 60.7799 48.6673C60.8149 48.2019 60.7799 47.7189 60.7799 47.1744H47.2313V14.6125H71.0838C70.8645 17.0011 70.6628 19.3282 70.4436 21.7783Z" fill="#EFD908"/>
<path d="M0 0V1.19433C0.166616 2.70472 0.35954 4.22393 0.508618 5.73435C0.903236 9.94071 1.28616 14.1441 1.65739 18.3447C2.01693 22.3842 2.36771 26.4149 2.73606 30.4456C3.10437 34.5115 3.49022 38.5686 3.85853 42.6344C4.16549 46.0153 4.46949 49.3991 4.77053 52.7859C5.0862 56.2546 5.4048 59.7233 5.72634 63.192C6.0245 66.5554 6.32557 69.9128 6.62958 73.2645C6.81373 75.3018 6.99789 77.3303 7.15573 79.3589C7.19081 79.8506 7.46266 79.9297 7.86604 80.0087C14.5921 81.3434 21.3181 82.7046 28.0442 84.0482C32.9725 85.0405 37.8833 86.0943 42.8379 86.9461C42.9824 86.9742 43.1292 86.9889 43.2764 86.99V0H0ZM39.7687 71.5345C38.0762 71.2008 36.4539 70.8847 34.8228 70.5597C30.3943 69.6816 25.9746 68.7771 21.5374 67.9165C20.941 67.8023 20.713 67.5916 20.6604 66.9593C20.3184 62.9286 19.9238 58.8978 19.5467 54.8671C19.548 54.7438 19.5568 54.6206 19.573 54.4983H26.7551C26.9042 56.0438 27.0445 57.563 27.1935 59.0735C27.2863 59.6633 27.3362 60.2591 27.3426 60.8561C27.29 61.5411 27.5882 61.787 28.2108 61.9011C29.6577 62.1558 31.0959 62.4456 32.613 62.7442V14.6213H39.7687V71.5345Z" fill="#B0B92E"/>
</g>
<defs>
<clipPath id="clip0_1433_245">
<rect width="87" height="87" fill="white"/>
</clipPath>
</defs>
</svg>
