<svg width="94" height="65" viewBox="0 0 94 65" fill="none" xmlns="http://www.w3.org/2000/svg">
<g clip-path="url(#clip0_1435_332)">
<path d="M8.53597 65C8.14623 64.925 7.75366 64.8624 7.36722 64.7729C6.24338 64.5473 5.22046 63.967 4.44735 63.1163C3.67425 62.2657 3.19132 61.1891 3.06887 60.0433C2.91041 58.9184 2.98186 57.7728 3.27887 56.6766C3.57588 55.5804 4.09219 54.5567 4.79621 53.668C6.22586 51.6781 8.07835 50.0335 10.2191 48.8535C12.7004 47.4346 15.2707 46.1729 17.8026 44.8434C17.969 44.756 18.137 44.6715 18.3858 44.5437C17.9307 44.2266 17.5407 43.9337 17.1307 43.6726C14.3109 41.8762 11.4671 40.1172 8.67052 38.2851C6.35439 36.8433 4.29342 35.0235 2.57231 32.9004C1.30823 31.3952 0.45579 29.5849 0.098923 27.6478C-0.175021 25.5269 0.24825 23.3741 1.30421 21.5177C2.52639 19.2699 4.12406 17.2503 6.02729 15.5473C11.0817 10.8949 16.8832 7.13682 23.1858 4.43261C27.2828 2.58377 31.5981 1.26934 36.0268 0.521298C40.9805 -0.413615 46.0856 -0.129463 50.9064 1.3495C52.8331 1.89984 54.6264 2.84339 56.1746 4.12134C57.2156 4.93593 58.0395 5.99734 58.5727 7.21058C59.1058 8.42383 59.3315 9.75106 59.2296 11.0735C58.9418 14.3449 57.6895 17.4555 55.6331 20.0068C53.476 22.6077 50.7726 24.6956 47.7174 26.1205C44.1052 27.9869 40.239 29.3073 36.2436 30.039C33.326 30.6742 30.3018 30.621 27.408 29.8837C26.1764 29.5784 25.0318 28.9904 24.064 28.166C23.0961 27.3415 22.3312 26.3028 21.8292 25.1314C21.7517 24.9912 21.6961 24.8397 21.6646 24.6825C21.6632 24.4879 21.6803 24.2936 21.7154 24.1023C21.8941 24.1217 22.0689 24.1678 22.2341 24.2389C23.9304 25.3636 25.8011 26.1965 27.7694 26.7035C30.0149 27.1731 32.3326 27.1712 34.5773 26.698C39.0175 25.9499 43.2529 24.2756 47.011 21.7829C49.5005 20.2089 51.5516 18.0249 52.9723 15.4358C53.7157 14.1885 54.1105 12.7624 54.1149 11.3082C54.1087 10.4255 53.8639 9.56114 53.4066 8.80766C52.9493 8.05418 52.2968 7.43998 51.519 7.03084C49.4786 5.94544 47.228 5.31891 44.9231 5.19463C40.7302 4.9675 36.5349 5.59537 32.5894 7.0405C26.278 9.14815 20.2796 12.1058 14.7578 15.8328C12.434 17.3292 10.4309 19.2774 8.86598 21.5629C7.48717 23.5059 6.85592 25.8858 7.08932 28.2612C7.35697 30.0866 8.17118 31.7866 9.42356 33.1351C11.1772 35.0545 13.1648 36.7437 15.3392 38.1626C17.4402 39.6533 19.534 41.1542 21.6381 42.6405C21.6984 42.6795 21.7663 42.7052 21.8372 42.7158C21.9081 42.7264 21.9805 42.7217 22.0495 42.702C23.9921 41.8838 25.9362 41.0685 27.863 40.2137C29.4224 39.537 30.8127 38.5201 31.9333 37.2367C33.4018 35.4345 35.3454 34.0846 37.5415 33.3416C38.0901 33.1701 38.655 33.057 39.2271 33.0042C39.6152 32.9251 40.0159 32.9326 40.4008 33.0261C40.7858 33.1196 41.1456 33.2969 41.4551 33.5455C41.7645 33.794 42.0159 34.1078 42.1916 34.4646C42.3674 34.8215 42.4631 35.2128 42.4722 35.6109C42.5189 36.3935 42.5109 37.1783 42.4483 37.9597C42.4458 38.082 42.4233 38.2038 42.4109 38.3177C42.7432 38.1542 43.0891 38.0205 43.4448 37.9181C43.7073 37.8545 43.9808 37.8519 44.2445 37.9104C44.5082 37.969 44.7551 38.0872 44.9666 38.2561C45.178 38.425 45.3484 38.6402 45.4648 38.8852C45.5812 39.1302 45.6406 39.3987 45.6384 39.6702C45.6228 40.501 45.4709 41.3234 45.1887 42.1044C44.5976 43.7301 43.8343 45.2925 43.2443 46.9185C42.9867 47.7077 42.8373 48.5285 42.8002 49.3582C42.839 49.8067 42.9481 50.2462 43.1235 50.6604L43.3326 50.694C43.8362 50.1245 44.2925 49.5145 44.6969 48.87C45.6065 47.1429 46.5056 45.4018 47.2653 43.6049C48.7007 40.2097 50.0269 36.7679 51.4194 33.3542C51.6971 32.6733 52.0721 32.0329 52.3958 31.3707C52.5826 30.961 52.8731 30.6077 53.2382 30.3462C53.6033 30.0847 54.0303 29.9241 54.4764 29.8805C55.5857 29.6263 56.7388 29.6362 57.8435 29.9097C58.6821 30.1815 58.7905 30.4172 58.5223 31.2587C58.0167 32.6999 57.7451 34.2136 57.7178 35.7416C57.7613 37.4379 58.2067 39.0993 59.0172 40.5876C59.0682 40.5648 59.124 40.5584 59.1446 40.5279C61.1256 37.8437 62.8359 34.9678 64.2503 31.9429C64.7204 30.8247 65.0457 29.6435 65.4078 28.4819C65.5296 28.091 65.6772 27.7309 66.0804 27.6111C67.4415 27.1229 68.9072 27.0074 70.3273 27.2764C70.5134 27.3209 70.6947 27.384 70.8683 27.4648C71.3456 27.6871 71.4309 27.9083 71.3014 28.4326C71.0517 29.4438 70.7589 30.4483 70.5804 31.4725C70.1727 34.1565 70.8057 36.8954 72.3487 39.1235C73.338 38.8284 74.3068 38.5156 75.2885 38.2513C77.9678 37.4742 80.7711 37.2245 83.5445 37.5159C86.8474 37.8009 89.9166 39.3457 92.1231 41.8335C92.7774 42.5654 93.2795 43.4216 93.5997 44.3517C93.9199 45.2817 94.0518 46.2668 93.9875 47.2489C93.9201 48.285 93.5132 49.2695 92.8303 50.0483C92.0951 50.9476 91.1246 51.6222 90.0283 51.9959C89.7703 52.076 89.5012 52.1139 89.2313 52.1083C89.0924 52.1081 88.9537 51.9896 88.8148 51.9245C88.8725 51.7845 88.9529 51.6551 89.0527 51.5415C89.3643 51.2916 89.7041 51.0776 90.0267 50.841C90.944 50.2351 91.6246 49.3287 91.9531 48.2757C92.2037 47.3166 92.0916 46.2981 91.6383 45.4175C91.149 44.4195 90.4579 43.5352 89.6092 42.8211C88.7606 42.1071 87.773 41.579 86.7098 41.2708C82.8445 39.9913 78.6921 39.8725 74.7607 40.9289C74.3456 41.0288 73.9346 41.146 73.5671 41.2432C73.7761 42.264 74.0249 43.2257 74.1604 44.2032C74.2476 44.8269 74.1983 45.4623 74.0158 46.0648C73.8334 46.6673 73.5222 47.2225 73.1041 47.6915C71.2075 49.8838 68.598 51.3271 65.7412 51.764C65.4331 51.8283 65.1146 51.8225 64.809 51.7468C64.5035 51.6712 64.2186 51.5278 63.9754 51.327C63.7322 51.1262 63.5367 50.8732 63.4034 50.5866C63.2701 50.3 63.2023 49.9869 63.2051 49.6705C63.1493 48.1623 63.6352 46.6842 64.574 45.5066C65.6366 44.116 66.8532 42.8516 68.2002 41.7377C68.355 41.5995 68.5109 41.4626 68.7006 41.2947C67.4482 39.2502 66.5763 36.9934 66.1278 34.6349C66.0531 34.6626 66.0011 34.6656 65.9775 34.6931C64.2209 36.6124 62.8168 38.8297 61.8304 41.2421C61.2257 42.7743 61.0775 44.4502 61.4038 46.0656C61.6854 47.1589 61.6269 48.3127 61.2364 49.3715C60.8459 50.4304 60.142 51.3434 59.2196 51.9877C56.9102 53.8488 53.9772 54.745 51.0285 54.4905C50.7897 54.4703 50.5527 54.4323 50.3195 54.3768C50.1553 54.3544 49.9981 54.2958 49.8591 54.2051C49.72 54.1145 49.6026 53.9941 49.5152 53.8525C49.4278 53.711 49.3726 53.5517 49.3535 53.3862C49.3345 53.2207 49.352 53.053 49.4048 52.8951C49.6085 52.172 49.9354 51.49 50.3709 50.8793C51.2678 49.7347 52.2737 48.6734 53.272 47.6133C54.0628 46.7736 54.9192 45.9968 55.7271 45.173C55.8308 45.1005 55.9188 45.0078 55.9859 44.9004C56.0531 44.7929 56.098 44.673 56.1179 44.5477C56.1379 44.4224 56.1325 44.2944 56.1021 44.1712C56.0716 44.0481 56.0168 43.9323 55.9409 43.831C54.8866 41.8111 54.0612 39.6786 53.4802 37.4734C53.4555 37.3835 53.4185 37.2971 53.3572 37.1248C53.1699 37.5504 53.011 37.912 52.8517 38.2734C51.4354 41.4854 50.0837 44.7283 48.5816 47.8992C47.4993 50.3456 45.9385 52.5479 43.992 54.375C43.5104 54.8208 42.974 55.2027 42.3958 55.5112C42.1192 55.6793 41.8085 55.7825 41.4868 55.8131C41.1651 55.8437 40.8406 55.8009 40.5376 55.688C40.2346 55.5751 39.9609 55.3948 39.7367 55.1608C39.5126 54.9267 39.3438 54.6448 39.243 54.3361C38.8853 53.4203 38.7311 52.4369 38.7915 51.4549C38.8009 50.7171 38.8623 49.9799 38.9071 49.1156C38.7826 49.3614 38.7041 49.5045 38.6359 49.6525C37.7949 51.6673 36.7542 53.5917 35.5294 55.3966C35.0427 56.1022 34.3311 56.6196 33.5123 56.8634C32.6935 57.1073 31.8165 57.0629 31.0262 56.7376C30.4353 56.5263 29.9233 56.1374 29.5596 55.6237C28.3585 53.9024 27.6911 51.862 27.6415 49.7599C27.5734 47.4424 27.9057 45.1305 28.6239 42.9273C28.6656 42.7893 28.7067 42.6511 28.7457 42.5124C28.7488 42.5015 28.7329 42.4853 28.6986 42.4188L23.6303 44.9973C23.9537 45.8768 24.2247 46.7748 24.4418 47.6867C25.0254 50.2953 24.8269 53.0193 23.8716 55.5146C22.9163 58.0099 21.2469 60.1644 19.0743 61.706C16.6665 63.5139 13.812 64.6234 10.821 64.9141C10.6973 64.9358 10.5749 64.9645 10.4543 65L8.53597 65ZM20.2684 46.8739C20.1061 46.9303 19.972 46.972 19.8414 47.0227C17.0182 48.1136 14.4071 49.6938 12.1268 51.6916C11.0233 52.6237 10.08 53.7322 9.33497 54.9727C8.67272 56.0258 8.3554 57.2611 8.42762 58.505C8.41905 58.9618 8.57759 59.406 8.87315 59.753C9.1687 60.1001 9.5807 60.326 10.0309 60.3878C10.6873 60.5257 11.3646 60.5288 12.0222 60.3969C14.0089 59.9646 15.8406 58.9952 17.3198 57.5932C18.7989 56.1911 19.8694 54.4096 20.4157 52.4408C20.9493 50.6157 20.8978 48.6679 20.2684 46.8739ZM38.9312 36.5435C38.8699 36.5579 38.7295 36.585 38.5925 36.6242C37.2216 37.0409 36.0145 37.8782 35.1402 39.0188C33.4329 41.1815 32.3872 43.7964 32.1302 46.5456C31.8913 48.1559 32.0403 49.8004 32.5645 51.3408C32.8533 52.1332 33.2638 52.2581 33.8123 51.6285C34.527 50.8534 35.1636 50.009 35.7128 49.1076C37.6823 45.4118 39.0149 41.4072 39.6542 37.2638C39.7432 36.7837 39.4966 36.5353 38.9312 36.5435ZM69.6158 43.5774C68.3117 44.4807 67.2314 45.6732 66.4583 47.0628C66.2232 47.5515 66.0598 48.0717 65.973 48.6075C65.831 49.4073 66.0166 49.5724 66.7858 49.3161C67.5462 49.0822 68.2298 48.6467 68.7649 48.0553C69.3 47.4639 69.6668 46.7384 69.8267 45.9552C70.0252 45.1614 69.9509 44.3234 69.6158 43.5774ZM57.1538 47.4741C55.6273 49.1073 54.1306 50.7086 52.6195 52.3254C53.9714 52.9268 57.4384 49.1543 57.1537 47.4741H57.1538Z" fill="#FF7B7B"/>
</g>
<defs>
<clipPath id="clip0_1435_332">
<rect width="94" height="65" fill="white"/>
</clipPath>
</defs>
</svg>
