<svg width="20" height="20" viewBox="0 0 20 20" fill="none" xmlns="http://www.w3.org/2000/svg">
<g clip-path="url(#clip0_1431_204)">
<path d="M0 19.9999C0.115376 19.5795 0.224271 19.1821 0.333498 18.7849C0.6745 17.5447 1.01308 16.3039 1.36025 15.0654C1.37936 15.0039 1.38495 14.939 1.37664 14.8751C1.36832 14.8113 1.3463 14.7499 1.31206 14.6953C0.359085 13.0022 -0.058738 11.0627 0.113096 9.12981C0.266763 7.09911 1.05188 5.16629 2.35958 3.59937C3.66727 2.03245 5.43274 0.909084 7.41116 0.38505C8.9811 -0.077736 10.644 -0.13295 12.2415 0.224669C13.839 0.582288 15.3178 1.34083 16.537 2.42801C18.2784 3.86354 19.444 5.87293 19.8221 8.09089C20.1152 9.54501 20.0677 11.0467 19.6833 12.4797C19.2988 13.9126 18.5878 15.2382 17.6053 16.3537C16.1526 18.0939 14.1278 19.2667 11.8893 19.6647C9.71608 20.0879 7.46281 19.7632 5.49976 18.7438C5.42839 18.7048 5.3499 18.6804 5.26891 18.672C5.18792 18.6636 5.10605 18.6714 5.02812 18.6949C3.42343 19.1208 1.81763 19.5426 0.210717 19.9602C0.152661 19.9754 0.0925142 19.9827 0 19.9999ZM2.4018 17.6399C2.49864 17.6167 2.57087 17.6006 2.64241 17.5821C3.52332 17.353 4.40549 17.1285 5.28383 16.89C5.36211 16.8665 5.44467 16.8606 5.52553 16.8728C5.60639 16.8849 5.68351 16.9148 5.75131 16.9603C7.59084 18.083 9.80268 18.4349 11.9025 17.939C13.4025 17.5934 14.7756 16.8379 15.867 15.7577C16.9585 14.6775 17.725 13.3156 18.0801 11.8254C18.4352 10.3353 18.3648 8.77606 17.8769 7.32353C17.389 5.871 16.5029 4.58288 15.3185 3.60435C14.1341 2.62581 12.6985 1.99575 11.1734 1.78517C9.64834 1.57459 8.09446 1.79186 6.68688 2.4125C5.27929 3.03313 4.07395 4.03246 3.20669 5.29787C2.33943 6.56327 1.84472 8.04446 1.77831 9.5745C1.70472 11.1065 2.07018 12.6277 2.83214 13.9611C2.99685 14.1717 3.12168 14.4103 3.2005 14.6653C3.18227 14.9337 3.11659 15.1968 3.00646 15.4424C2.80692 16.1669 2.60775 16.8914 2.4018 17.6399Z" fill="white"/>
<path d="M4.95953 7.70434C4.96265 7.31015 5.04748 6.92083 5.20874 6.56073C5.37 6.20063 5.60421 5.87749 5.89673 5.61152C5.98303 5.52528 6.0861 5.45746 6.19965 5.4122C6.31321 5.36694 6.43485 5.34521 6.55714 5.34831C6.70321 5.35845 6.8497 5.3612 6.99606 5.35655C7.10825 5.34302 7.22163 5.36946 7.3161 5.43117C7.41056 5.49288 7.47999 5.58587 7.51209 5.69366C7.79677 6.3625 8.08537 7.03001 8.34921 7.707C8.36874 7.77478 8.37428 7.84578 8.36553 7.91574C8.35677 7.9857 8.33389 8.05317 8.29826 8.11412C8.10938 8.40514 7.9027 8.68434 7.6794 8.95015C7.61343 9.01669 7.57366 9.10457 7.56731 9.1978C7.56096 9.29104 7.58846 9.38344 7.6448 9.45822C8.4159 10.785 9.61822 11.8111 11.0538 12.3676C11.1395 12.4178 11.2417 12.4323 11.3381 12.4077C11.4345 12.3831 11.5171 12.3216 11.568 12.2366C11.816 11.9368 12.061 11.6346 12.3028 11.3298C12.4734 11.1146 12.5744 11.0603 12.8225 11.1732C13.5307 11.4956 14.2322 11.8331 14.9288 12.1797C14.9722 12.2098 15.0084 12.249 15.0348 12.2946C15.0612 12.3402 15.0771 12.3911 15.0815 12.4435C15.12 12.7933 15.0583 13.1468 14.9035 13.4632C14.7487 13.7795 14.507 14.0459 14.2064 14.2314C13.8253 14.4696 13.3956 14.6203 12.9486 14.6724C12.5015 14.7246 12.0484 14.677 11.6222 14.5331C9.37156 13.8591 7.42815 12.4245 6.12757 10.4771C5.63941 9.86963 5.28012 9.17003 5.07138 8.42057C5.01724 8.18567 4.99591 7.94328 4.95953 7.70434Z" fill="white"/>
</g>
<defs>
<clipPath id="clip0_1431_204">
<rect width="20" height="20" fill="white"/>
</clipPath>
</defs>
</svg>
